<svg width="15" height="19" viewBox="0 0 15 19" fill="none" xmlns="http://www.w3.org/2000/svg">
<path fill-rule="evenodd" clip-rule="evenodd" d="M3.49509 6.51647C1.46309 8.71547 1.50609 12.2015 3.62409 14.3605C4.65809 15.4175 6.03209 16.0005 7.49609 16.0015H7.50109C8.96809 16.0015 10.3471 15.4185 11.3861 14.3605C13.5421 12.1625 13.5381 8.58747 11.3771 6.39247L8.39109 3.34147C8.08909 5.82347 7.15809 8.00147 5.50009 8.00147C4.99209 8.00147 4.16409 7.77547 3.49509 6.51647V6.51647ZM7.50109 18.0015H7.49409C5.48809 17.9995 3.60609 17.2045 2.19509 15.7595C-0.718914 12.7895 -0.722914 7.95647 2.18609 4.99147L3.16909 3.99747C3.42309 3.74347 3.79209 3.64547 4.14109 3.73647C4.48809 3.83047 4.75809 4.10347 4.84809 4.45147C5.07809 5.34047 5.35209 5.77747 5.50309 5.94347C5.85809 5.56947 6.50009 4.05847 6.50009 1.50147C6.50009 1.35447 6.50009 1.21547 6.49209 1.07647C6.47309 0.781471 6.58609 0.492471 6.80009 0.288471C7.19709 -0.0885292 7.83309 -0.0885292 8.21409 0.303471L12.8041 4.99247C15.7241 7.95647 15.7291 12.7895 12.8141 15.7605C11.3951 17.2065 9.50909 18.0015 7.50109 18.0015V18.0015Z" fill="#7831EF"/>
</svg>
